Coordinates
version=1
nRows=36
nColumns=30
inDegrees=yes

Units are S.I. units (second, meters, Newtons, ...)
Angles are in degrees.

endheader
time	floatyaw	floatroll	floatpitch	floatx	floaty	floatz	pro_sup_l	deviation_l	flexion_l	cmc_flexion_l	cmc_abduction_l	mp_flexion_l	ip_flexion_l	2mcp_flexion_l	2mcp_abduction_l	2pm_flexion_l	2md_flexion_l	3mcp_flexion_l	3mcp_abduction_l	3pm_flexion_l	3md_flexion_l	4mcp_flexion_l	4mcp_abduction_l	4pm_flexion_l	4md_flexion_l	5mcp_flexion_l	5mcp_abduction_l	5pm_flexion_l	5md_flexion_l
0.005000	-3.835761	-5.011433	94.526577	0.163989	-0.270718	0.155913	109.131320	21.976741	24.994801	-3.427805	38.834226	-16.433734	-22.363830	47.471050	11.654426	35.785876	35.163170	44.895383	7.020155	36.952799	48.053163	35.763634	-5.655460	54.104427	44.708394	14.699015	-12.593245	49.598112	47.463417
0.015000	-3.835761	-5.011433	94.526577	0.163376	-0.269958	0.155024	108.561054	21.610727	24.383773	-2.326154	39.026033	-16.989866	-25.615605	47.697572	11.791132	36.125852	36.741043	44.684481	6.975932	37.752601	49.784268	35.219377	-5.861607	55.110377	46.357867	14.375888	-12.467081	49.697798	47.983797
0.025000	-3.835761	-5.011433	94.526577	0.162677	-0.269135	0.154071	108.019680	21.282711	23.682236	-1.195057	39.272466	-17.406422	-29.157903	47.883756	11.923793	36.457643	38.457116	44.465816	6.939006	38.560155	51.603289	34.683239	-6.046126	56.110201	48.094406	13.907779	-12.316683	49.916701	48.594839
0.035000	-3.835761	-5.011433	94.526577	0.161914	-0.268340	0.153069	107.528666	21.004112	22.949008	-0.175532	39.519575	-17.647345	-32.662419	48.027586	12.052893	36.729418	40.217596	44.259751	6.911650	39.276526	53.408292	34.193963	-6.196887	56.999644	49.805611	13.407181	-12.159151	50.182479	49.226607
0.045000	-3.835761	-5.011433	94.526577	0.161112	-0.267667	0.152042	107.099611	20.775411	22.261577	0.615836	39.729338	-17.702103	-35.782723	48.105758	12.174531	36.911123	41.899290	44.064604	6.892773	39.827578	55.066800	33.767110	-6.306892	57.689072	51.372182	13.006012	-12.018259	50.387302	49.782381
0.055000	-3.835761	-5.011433	94.526577	0.160298	-0.267185	0.151040	106.740515	20.592745	21.688291	1.123387	39.889774	-17.592255	-38.260756	48.097550	12.281434	36.998622	43.381212	43.871195	6.879397	40.184060	56.453784	33.406664	-6.376438	58.129366	52.694298	12.808660	-11.916281	50.438932	50.178835
0.065000	-3.835761	-5.011433	94.526577	0.159500	-0.266922	0.150138	106.462637	20.455652	21.262009	1.366570	40.012828	-17.366814	-40.002531	48.006041	12.365693	37.008748	44.577557	43.678768	6.868434	40.365357	57.485783	33.118632	-6.412571	58.324043	53.712015	12.850023	-11.864174	50.309114	50.382324
0.075000	-3.835761	-5.011433	94.526577	0.158747	-0.266856	0.149418	106.282046	20.370112	20.969063	1.424492	40.122905	-17.087454	-41.087243	47.865300	12.421908	36.968733	45.456591	43.502399	6.857913	40.426600	58.138573	32.916523	-6.426206	58.324531	54.412838	13.082179	-11.855994	50.051873	50.421117
0.085000	-3.835761	-5.011433	94.526577	0.158068	-0.266929	0.148944	106.212535	20.344156	20.760309	1.399388	40.242753	-16.810195	-41.709744	47.729198	12.449411	36.905649	46.038727	43.367629	6.847266	40.435318	58.445423	32.814869	-6.428305	58.211429	54.825784	13.399794	-11.871883	49.778898	50.365829
0.095000	-3.835761	-5.011433	94.526577	0.157491	-0.267070	0.148732	106.253128	20.379113	20.577982	1.377592	40.382885	-16.571554	-42.090178	47.648811	12.452683	36.838962	46.379082	43.297491	6.836901	40.446064	58.482369	32.816815	-6.426755	58.068439	55.007385	13.690800	-11.888141	49.604925	50.291034
0.105000	-3.835761	-5.011433	94.526577	0.157038	-0.267219	0.148739	106.379295	20.463270	20.382517	1.404959	40.537782	-16.383995	-42.395485	47.652187	12.439795	36.775952	46.546320	43.301849	6.827505	40.480807	58.349727	32.906308	-6.425039	57.957150	55.027114	13.882966	-11.887630	49.594180	50.242966
0.115000	-3.835761	-5.011433	94.526577	0.156714	-0.267342	0.148875	106.546016	20.572671	20.165124	1.483666	40.688987	-16.240980	-42.702839	47.736885	12.419597	36.710259	46.607075	43.374962	6.819435	40.522341	58.154614	33.050753	-6.422929	57.900947	54.956341	13.962527	-11.864368	49.735520	50.230450
0.125000	-3.835761	-5.011433	94.526577	0.156509	-0.267429	0.149038	106.702730	20.678360	19.942687	1.586510	40.812902	-16.128342	-43.008789	47.875836	12.398952	36.626203	46.617647	43.499290	6.812410	40.525919	57.993395	33.211393	-6.418534	57.884562	54.860086	13.961651	-11.821405	49.954471	50.237415
0.135000	-3.835761	-5.011433	94.526577	0.156393	-0.267489	0.149153	106.811769	20.755557	19.742320	1.678467	40.889964	-16.036228	-43.267073	48.030100	12.381207	36.509908	46.619629	43.650169	6.805598	40.446856	57.932873	33.354064	-6.410562	57.870221	54.789117	13.929066	-11.765670	50.151235	50.242853
0.145000	-3.835761	-5.011433	94.526577	0.156329	-0.267535	0.149194	106.860044	20.790303	19.586381	1.734958	40.911939	-15.965418	-43.431489	48.161835	12.366333	36.362127	46.637173	43.799038	6.798048	40.270876	57.994929	33.455365	-6.399621	57.822798	54.772667	13.902321	-11.703787	50.244721	50.235238
0.155000	-3.835761	-5.011433	94.526577	0.156282	-0.267578	0.149180	106.858767	20.781504	19.484730	1.750162	40.885096	-15.924621	-43.485815	48.244135	12.352371	36.203888	46.677040	43.917204	6.789176	40.029147	58.153640	33.504209	-6.388088	57.730587	54.815189	13.893883	-11.640543	50.203412	50.216768
0.165000	-3.835761	-5.011433	94.526577	0.156233	-0.267619	0.149159	106.833195	20.738663	19.434625	1.734644	40.828532	-15.921009	-43.452971	48.266613	12.337381	36.070164	46.732829	43.982145	6.779014	39.788294	58.349448	33.501120	-6.378893	57.610980	54.900071	13.893676	-11.579411	50.051915	50.199293
0.175000	-3.835761	-5.011433	94.526577	0.156180	-0.267654	0.149174	106.808914	20.676980	19.424868	1.706405	40.768290	-15.951029	-43.384246	48.235930	12.321008	35.995397	46.791390	43.984496	6.768110	39.621696	58.514543	33.456512	-6.374109	57.500047	54.999193	13.882618	-11.523724	49.853831	50.195850
0.185000	-3.835761	-5.011433	94.526577	0.156135	-0.267681	0.149245	106.801315	20.611917	19.440803	1.681411	40.729092	-15.998490	-43.335800	48.171051	12.304930	35.999962	46.837403	43.931189	6.757242	39.579272	58.596830	33.387455	-6.374157	57.434188	55.083687	13.847690	-11.477204	49.681719	50.211876
0.195000	-3.835761	-5.011433	94.526577	0.156111	-0.267696	0.149364	106.811908	20.554971	19.468417	1.668082	40.726449	-16.041436	-43.343934	48.094999	12.291934	36.084369	46.854633	43.841840	6.747152	39.671392	58.572344	33.312593	-6.377902	57.434648	55.131447	13.790153	-11.443275	49.588753	50.240123
0.205000	-3.835761	-5.011433	94.526577	0.156115	-0.267699	0.149499	106.831344	20.511746	19.497013	1.666816	40.762218	-16.062742	-43.411215	48.026776	12.284128	36.231773	46.826657	43.740023	6.738449	39.871929	58.444331	33.246634	-6.383377	57.501569	55.130033	13.723700	-11.423550	49.593294	50.262289
0.215000	-3.835761	-5.011433	94.526577	0.156141	-0.267694	0.149613	106.846283	20.482434	19.520232	1.672872	40.825602	-16.056993	-43.510072	47.976960	12.281421	36.414781	46.740903	43.644579	6.731631	40.134271	58.234505	33.196987	-6.388651	57.617559	55.076687	13.665495	-11.416557	49.679916	50.257607
0.225000	-3.835761	-5.011433	94.526577	0.156176	-0.267682	0.149680	106.846384	20.463984	19.535400	1.679950	40.898965	-16.029599	-43.600817	47.948357	12.281295	36.601990	46.596292	43.565844	6.727080	40.408814	57.974217	33.164384	-6.392429	57.756062	54.977769	13.626881	-11.417664	49.812546	50.214582
0.235000	-3.835761	-5.011433	94.526577	0.156206	-0.267667	0.149691	106.828557	20.452752	19.541689	1.682684	40.965301	-15.989931	-43.653030	47.940137	12.280042	36.762047	46.410165	43.508028	6.724958	40.652914	57.700260	33.146825	-6.394242	57.889166	54.848470	13.609712	-11.420432	49.951069	50.139137
0.245000	-3.835761	-5.011433	94.526577	0.156218	-0.267652	0.149653	106.797340	20.446462	19.538242	1.677663	41.013714	-15.944022	-43.658486	47.952092	12.274629	36.866178	46.218553	43.474560	6.725052	40.832239	57.454065	33.143965	-6.394288	57.992268	54.711645	13.609495	-11.418841	50.063739	50.053749
0.255000	-3.835761	-5.011433	94.526577	0.156205	-0.267642	0.149584	106.762019	20.444760	19.523449	1.663646	41.041174	-15.891787	-43.630394	47.985954	12.264061	36.891949	46.066515	43.471253	6.726694	40.919865	57.278337	33.158804	-6.393106	58.046604	54.593849	13.621434	-11.409438	50.132561	49.987499
0.265000	-3.835761	-5.011433	94.526577	0.156168	-0.267636	0.149506	106.732178	20.448344	19.495716	1.641536	41.051265	-15.829771	-43.592164	48.043129	12.249542	36.829725	45.990694	43.504263	6.728840	40.900104	57.206329	33.195496	-6.391259	58.042038	54.517906	13.644068	-11.392448	50.153502	49.962405
0.275000	-3.835761	-5.011433	94.526577	0.156111	-0.267637	0.149433	106.713779	20.457384	19.455039	1.614062	41.051505	-15.756504	-43.563455	48.120891	12.233536	36.689502	46.001740	43.574321	6.730322	40.777209	57.246241	33.254844	-6.389176	57.980799	54.494031	13.678337	-11.371340	50.134461	49.982977
0.285000	-3.835761	-5.011433	94.526577	0.156042	-0.267643	0.149375	106.707432	20.470377	19.404083	1.584851	41.050420	-15.676199	-43.550722	48.210212	12.218446	36.502762	46.076318	43.672106	6.730180	40.581348	57.370795	33.330783	-6.387144	57.879666	54.514021	13.724195	-11.351023	50.092066	50.033784
0.295000	-3.835761	-5.011433	94.526577	0.155965	-0.267652	0.149332	106.709334	20.484242	19.347833	1.557164	41.054962	-15.598370	-43.546038	48.297402	12.205637	36.314932	46.164784	43.779295	6.727941	40.362982	57.522712	33.410715	-6.385353	57.766791	54.553000	13.778344	-11.335585	50.046689	50.086191
0.305000	-3.835761	-5.011433	94.526577	0.155887	-0.267661	0.149302	106.714000	20.495540	19.291905	1.533088	41.068730	-15.534031	-43.533680	48.369214	12.195219	36.169311	46.212362	43.875820	6.723725	40.174137	57.637939	33.480208	-6.383896	57.671911	54.579847	13.834812	-11.326687	50.015731	50.111703
0.315000	-3.835761	-5.011433	94.526577	0.155809	-0.267670	0.149282	106.717140	20.502012	19.240585	1.513682	41.091302	-15.491182	-43.500076	48.418441	12.186449	36.089782	46.183752	43.949121	6.718116	40.045612	57.675775	33.529460	-6.382705	57.613823	54.571904	13.887374	-11.323300	50.007365	50.095922
0.325000	-3.835761	-5.011433	94.526577	0.155733	-0.267676	0.149266	106.717287	20.503566	19.195787	1.499655	41.118670	-15.472132	-43.441122	48.446304	12.178333	36.072138	46.078325	43.999204	6.711903	39.974293	57.637983	33.557461	-6.381553	57.592524	54.525735	13.931697	-11.322682	50.018101	50.045686
0.335000	-3.835761	-5.011433	94.526577	0.155660	-0.267680	0.149253	106.715718	20.502282	19.157314	1.491704	41.144644	-15.473500	-43.363170	48.460047	12.170060	36.089599	45.927566	44.036101	6.705845	39.929587	57.564136	33.571194	-6.380153	57.591479	54.457133	13.965893	-11.321925	50.036126	49.984809
0.345000	-3.835761	-5.011433	94.526577	0.155593	-0.267682	0.149240	106.715054	20.501413	19.123898	1.490079	41.163075	-15.488032	-43.278635	48.467833	12.161154	36.109202	45.776233	44.071768	6.700573	39.875209	57.505525	33.580718	-6.378351	57.588819	54.390177	13.989833	-11.319254	50.048763	49.940453
0.355000	-3.835761	-5.011433	94.526577	0.155533	-0.267682	0.149228	106.717383	20.503747	19.094166	1.493736	41.170410	-15.506776	-43.200338	48.474864	12.151453	36.108567	45.658613	44.112517	6.696580	39.791616	57.494732	33.593766	-6.376277	57.570002	54.342590	14.004625	-11.314540	50.049462	49.928356
